<svg width="179" height="39" viewBox="0 0 179 39" fill="none" xmlns="http://www.w3.org/2000/svg">
<path d="M22.52 35H14.6L20.44 10H30.36L31.08 22.72H31.36L36.56 10H46.48L43.52 35H35.56L37.24 22.88H36.96L31.96 35H26.16L25.32 22.88H25.12L22.52 35ZM46.5019 35L46.8619 28.6H50.0219C50.7952 28.6 51.3019 28.4933 51.5419 28.28C51.8085 28.04 51.9685 27.7467 52.0219 27.4L53.9419 16.4H50.8219L51.9819 10H62.7019L59.4619 28.4C59.0885 30.56 58.2885 32.2 57.0619 33.32C55.8619 34.44 54.3152 35 52.4219 35H46.5019Z" fill="white"/>
<path d="M90.64 10H98.6L90.48 35H80.4V25.8H79.96L76.64 35H67.4V10H75.36L74.64 23.96H74.88L80.08 10H86.12V23.96H86.36L90.64 10ZM98.3922 28.32C98.3922 24.32 99.4055 21 101.432 18.36C103.486 15.72 106.552 14.4 110.632 14.4C113.592 14.4 115.752 15.0133 117.112 16.24C118.499 17.44 119.192 19.2933 119.192 21.8C119.192 24.3067 118.779 26.5733 117.952 28.6C117.152 30.6267 115.806 32.3067 113.912 33.64C112.019 34.9467 109.646 35.6 106.792 35.6C101.192 35.6 98.3922 33.1733 98.3922 28.32ZM107.432 21.92L106.072 29.76H107.232C108.139 29.76 108.819 29.6667 109.272 29.48C109.726 29.2667 110.019 28.8 110.152 28.08L111.552 20.24H110.352C109.446 20.24 108.766 20.3467 108.312 20.56C107.859 20.7467 107.566 21.2 107.432 21.92ZM124.546 15H128.346L130.066 17.24C131.799 15.8 133.826 14.8533 136.146 14.4L135.306 21.96C134.693 21.9867 133.866 22.1467 132.826 22.44C131.786 22.7333 131.053 23.1067 130.626 23.56L128.626 35H121.026L124.546 15ZM147.146 35L145.586 27.08H145.306L143.946 35H136.346L140.906 9L148.626 8.4L146.306 21.6H146.586L150.506 15H158.706L152.626 24.52L155.346 35H147.146ZM159.818 23.2C159.818 20.3467 160.645 18.1733 162.298 16.68C163.978 15.16 166.445 14.4 169.698 14.4C172.978 14.4 175.751 14.8133 178.018 15.64L176.178 21.08C174.338 20.4933 172.418 20.2 170.418 20.2C169.778 20.2 168.898 20.2533 167.778 20.36L167.538 21.64C170.978 21.64 173.405 22.0933 174.818 23C176.231 23.88 176.938 25.16 176.938 26.84C176.938 32.68 173.591 35.6 166.898 35.6C162.925 35.6 159.765 35.2133 157.418 34.44L159.338 28.76C161.391 29.4533 163.631 29.8 166.058 29.8C167.231 29.8 168.285 29.7467 169.218 29.64L169.458 28.36C165.938 28.36 163.445 27.9467 161.978 27.12C160.538 26.2667 159.818 24.96 159.818 23.2Z" fill="#FE0000"/>
</svg>
